<svg width="300" height="300" viewBox="0 0 300 300" fill="none" xmlns="http://www.w3.org/2000/svg">
    <g opacity="0.2">
        <path d="M600.454 12.3551V13.7225C591.501 15.0571 582.98 13.2475 574.59 9.83042C565.139 5.98206 556.066 1.45955 545.621 1.34765C532.365 1.20845 518.205 6.72171 509.048 16.3945C502.198 23.6272 498.374 32.937 492.47 40.8548C480.248 57.2472 458.485 62.9515 439.527 55.9835C430.165 52.5418 421.385 47.5143 411.289 46.4881C398.101 45.1426 383.39 49.8971 373.499 58.7265C365.914 65.4979 361.771 74.7012 356.214 83.0012C350.859 90.9954 343.888 97.0763 334.862 100.605C325.017 104.454 314.646 105.142 304.531 102.006C295.429 99.1807 287.137 94.1532 277.756 92.1526C264.721 89.3742 250.114 92.9359 239.251 100.518C230.315 106.755 225.421 116.064 219.826 125.079C209.239 142.135 189.956 152.681 169.631 147.842C160.368 145.637 152.125 140.566 142.998 137.945C130.135 134.253 116.171 136.635 104.602 143.202C86.3807 153.544 83.0182 176.743 65.1137 187.251C56.1588 192.505 45.1705 195.054 34.8591 193.444C25.3828 191.964 17.0611 187.052 8.10885 183.929C5.42319 182.993 2.71569 182.305 0 181.855V180.367C0.957997 180.526 1.91326 180.722 2.8658 180.949C12.1565 183.168 20.4154 188.231 29.5642 190.862C41.6688 194.344 54.9388 192.087 65.5695 185.376C74.6828 179.622 79.6283 170.49 85.0843 161.571C96.078 143.598 115.898 131.862 137.52 135.314C147.1 136.845 155.485 141.728 164.533 144.897C176.427 149.065 188.895 148.164 200.194 142.476C219.029 132.992 222.435 109.825 239.698 98.5747C249.292 92.3191 261.634 88.8993 273.078 90.0456C282.546 90.9927 290.871 95.335 299.575 98.7822C310.642 103.168 321.679 103.919 333.025 99.8412C344.475 95.7281 351.899 87.7229 358.031 77.5425C362.764 69.682 367.306 61.7778 374.637 56.0026C383.665 48.8899 395.923 44.785 407.411 44.9078C416.816 45.0061 425.288 48.5706 433.792 52.1979C444.524 56.775 455.024 59.3678 466.637 56.341C478.813 53.1695 487.817 45.9968 494.474 35.4971C499.482 27.6011 503.661 19.1675 510.743 12.8381C519.054 5.41436 530.46 1.0365 541.508 0.133094C551.192 -0.658413 560.103 2.18282 568.894 5.93566C579.132 10.3081 589.094 14.1892 600.454 12.3551Z" fill="white"/>
        <path d="M600.454 35.2132V36.5643C594.116 36.365 587.961 34.7329 581.878 32.2546C572.426 28.4035 563.354 23.881 552.909 23.7719C539.655 23.6299 525.492 29.1459 516.336 38.816C509.485 46.0514 505.661 55.3585 499.758 63.279C487.538 79.6686 465.772 85.3757 446.817 78.4077C437.452 74.966 428.672 69.9386 418.576 68.9096C405.391 67.5668 390.677 72.3185 380.786 81.1507C373.201 87.9221 369.061 97.1227 363.501 105.423C358.149 113.42 351.175 119.501 342.149 123.03C332.307 126.878 321.933 127.566 311.818 124.427C302.716 121.602 294.427 116.575 285.046 114.577C272.008 111.796 257.401 115.36 246.538 122.94C237.602 129.176 232.711 138.486 227.116 147.501C216.529 164.559 197.244 175.105 176.921 170.263C167.655 168.058 159.412 162.987 150.285 160.367C137.422 156.674 123.459 159.057 111.889 165.624C93.668 175.965 90.3055 199.167 72.4011 209.672C63.4461 214.929 52.4605 217.475 42.1491 215.868C32.6701 214.389 24.3484 209.473 15.3962 206.353C10.3114 204.579 5.14753 203.695 0 203.635V202.161C3.39256 202.18 6.78786 202.565 10.1531 203.37C19.4438 205.592 27.7027 210.652 36.8515 213.286C48.9561 216.766 62.2288 214.511 72.8596 207.797C81.9701 202.044 86.9157 192.914 92.3716 183.995C103.365 166.019 123.186 154.283 144.808 157.736C154.388 159.267 162.772 164.15 171.82 167.318C183.714 171.486 196.185 170.585 207.481 164.898C226.316 155.416 229.723 132.249 246.988 120.996C256.582 114.743 268.921 111.323 280.365 112.467C289.834 113.414 298.158 117.757 306.865 121.206C317.929 125.59 328.967 126.34 340.313 122.263C351.762 118.15 359.186 110.147 365.319 99.9667C370.054 92.1062 374.596 84.1993 381.924 78.4268C390.953 71.3114 403.21 67.2065 414.698 67.3293C424.106 67.4303 432.575 70.9948 441.08 74.6221C451.814 79.1992 462.311 81.7893 473.924 78.7625C486.103 75.591 495.104 68.4211 501.761 57.9213C506.769 50.0226 510.951 41.589 518.033 35.2624C526.344 27.8386 537.75 23.4607 548.796 22.5573C558.482 21.7631 567.391 24.607 576.182 28.3599C584.176 31.7715 592.001 34.8857 600.454 35.2132Z" fill="white"/>
        <path d="M600.454 56.6904V58.1451C596.649 57.3945 592.896 56.1936 589.168 54.6761C579.716 50.8278 570.644 46.3052 560.199 46.1933C546.942 46.0514 532.78 51.5674 523.623 61.2402C516.775 68.4729 512.948 77.7827 507.045 85.7005C494.826 102.093 473.059 107.797 454.104 100.829C444.74 97.3875 435.962 92.36 425.866 91.3338C412.678 89.9883 397.967 94.7428 388.073 103.572C380.491 110.344 376.348 119.547 370.791 127.847C365.436 135.841 358.463 141.922 349.437 145.451C339.595 149.299 329.221 149.987 319.108 146.851C310.003 144.026 301.714 138.999 292.334 136.998C279.296 134.22 264.688 137.782 253.825 145.364C244.892 151.6 239.999 160.907 234.403 169.922C223.816 186.981 204.534 197.527 184.208 192.688C174.945 190.482 166.702 185.411 157.575 182.791C144.709 179.096 130.749 181.481 119.176 188.048C100.955 198.389 97.5928 221.589 79.6884 232.097C70.7334 237.35 59.7479 239.9 49.4364 238.289C39.9575 236.81 31.6357 231.897 22.6835 228.775C15.1915 226.163 7.53023 225.481 0 226.52V225.088C5.77527 224.261 11.657 224.411 17.4405 225.794C26.7338 228.013 34.9901 233.076 44.1388 235.707C56.2434 239.19 69.5162 236.933 80.1469 230.221C89.2602 224.468 94.203 215.336 99.6589 206.416C110.653 188.441 130.476 176.707 152.095 180.16C161.675 181.688 170.059 186.574 179.107 189.743C191.002 193.908 203.472 193.007 214.769 187.322C233.607 177.837 237.013 154.671 254.276 143.418C263.869 137.165 276.209 133.745 287.655 134.891C297.121 135.838 305.445 140.181 314.152 143.628C325.217 148.014 336.254 148.762 347.603 144.687C359.052 140.574 366.473 132.569 372.606 122.388C377.341 114.528 381.883 106.624 389.211 100.848C398.243 93.7356 410.497 89.6307 421.988 89.7508C431.393 89.8518 439.865 93.4163 448.367 97.0436C459.101 101.621 469.598 104.214 481.214 101.187C493.39 98.0152 502.391 90.8425 509.051 80.3428C514.057 72.4468 518.238 64.0132 525.32 57.6838C533.631 50.2601 545.037 45.8822 556.086 44.9788C565.769 44.1873 574.678 47.0285 583.469 50.7814C589.121 53.1941 594.689 55.4567 600.454 56.6904Z" fill="white"/>
        <path d="M539.92 76.3907C543.727 74.0844 547.851 72.3513 552.101 71.0357C556.44 69.6929 560.93 68.8032 565.477 68.6421C569.203 68.5111 572.926 68.8687 576.561 69.6875C579.904 70.4408 583.15 71.557 586.329 72.8262C591.054 74.7122 595.661 76.9257 600.454 78.6315V77.1713C596.485 75.7384 592.629 73.9752 588.734 72.3458C582.129 69.5837 575.303 67.4385 568.086 67.2638C563.725 67.1574 559.361 67.7278 555.133 68.7731C550.548 69.9085 546.044 71.5461 541.855 73.7351C538.438 75.5228 535.236 77.7253 532.376 80.3155C529.849 82.6109 527.616 85.2037 525.61 87.9604C521.835 93.1379 518.926 98.8668 515.408 104.211C515.187 104.544 514.965 104.874 514.744 105.202C512.981 104.95 511.188 104.8 509.362 104.781C497.749 104.658 485.382 108.802 476.242 115.972C473.231 118.332 470.682 121.048 468.398 123.971C462.183 122.489 456.397 119.724 450.523 117.271C443.918 114.509 437.092 112.361 429.876 112.186C425.514 112.079 421.15 112.65 416.922 113.698C412.337 114.831 407.834 116.471 403.644 118.66C400.227 120.445 397.025 122.647 394.165 125.24C391.635 127.533 389.405 130.126 387.396 132.882C383.622 138.063 380.712 143.792 377.191 149.136C376.978 149.458 376.763 149.78 376.544 150.102C376.042 150.034 375.537 149.971 375.03 149.919C363.474 148.773 350.992 152.225 341.306 158.541C336.945 161.382 333.467 164.988 330.397 168.942C324.103 167.471 318.254 164.676 312.312 162.193C305.707 159.431 298.881 157.285 291.665 157.108C287.303 157.004 282.939 157.572 278.711 158.62C274.126 159.756 269.623 161.393 265.433 163.582C262.016 165.37 258.815 167.57 255.954 170.162C253.424 172.455 251.194 175.051 249.186 177.807C245.411 182.985 242.501 188.714 238.981 194.058C238.77 194.383 238.555 194.702 238.336 195.021C220.279 192.617 203.551 200.586 192.192 213.867C185.895 212.399 180.043 209.601 174.099 207.115C167.494 204.356 160.668 202.208 153.451 202.033C149.093 201.926 144.726 202.497 140.498 203.542C135.913 204.678 131.409 206.318 127.22 208.507C123.803 210.292 120.601 212.494 117.741 215.087C115.213 217.38 112.981 219.973 110.972 222.729C107.2 227.91 104.291 233.639 100.77 238.983C100.554 239.31 100.333 239.64 100.112 239.965C90.8404 238.816 81.4679 240.56 72.8105 244.226C65.1083 247.487 58.8526 252.444 53.7461 258.735C47.3894 257.209 41.4859 254.36 35.465 251.862C28.7454 249.076 21.7828 246.985 14.4491 246.941C9.6209 246.911 4.72175 247.651 0 249.007V250.443C2.62562 249.684 5.29491 249.117 7.95055 248.743C15.6664 247.656 23.2758 248.789 30.5686 251.409C36.9825 253.716 43.0498 256.906 49.5483 258.983C50.6264 259.33 51.7182 259.638 52.8154 259.911C51.8519 261.164 50.9321 262.463 50.0533 263.811C44.6929 272.024 40.547 281.121 32.8203 287.488C23.9581 294.792 11.4796 298.474 0 297.052V299.784H10.2295C18.221 298.832 26.1252 295.769 32.4955 291.165C40.0584 285.698 44.7229 277.887 49.4228 270.026C55.2718 260.244 62.106 252.021 72.7259 247.22C84.6721 241.818 97.4918 240.828 109.878 245.145C118.833 248.268 127.152 253.17 136.631 254.66C147.122 256.308 158.29 253.746 167.409 248.396C185.333 237.877 188.703 214.672 206.897 204.347C218.311 197.868 232.078 195.515 244.767 199.159C253.894 201.779 262.136 206.85 271.402 209.055C292.028 213.968 311.616 203.299 322.367 185.979C327.897 177.07 332.72 167.832 341.546 161.663C352.245 154.185 366.67 150.629 379.528 153.369C388.908 155.367 397.197 160.394 406.3 163.219C416.524 166.391 427.043 165.703 436.994 161.822C446.194 158.233 453.296 152.051 458.755 143.901C464.279 135.65 468.392 126.496 475.93 119.765C485.691 111.059 500.238 106.386 513.24 107.726C523.263 108.761 531.999 113.78 541.298 117.2C560.551 124.277 582.628 118.39 595.011 101.757C596.996 99.0906 598.745 96.2657 600.454 93.4163V88.1487C598.917 90.6679 597.419 93.2143 595.836 95.7089C589.272 106.061 580.409 113.111 568.406 116.239C556.984 119.217 546.648 116.667 536.088 112.167C529.581 109.391 523.107 106.659 516.224 105.439C519.42 100.663 522.086 95.5506 525.296 90.7798C529.174 85.0181 533.953 80.0071 539.92 76.3907ZM186.444 221.782C181.053 230.598 176.181 239.657 167.177 245.342C156.694 251.961 143.631 254.193 131.696 250.76C122.547 248.129 114.288 243.068 104.998 240.847C103.87 240.577 102.74 240.355 101.608 240.178C104.796 235.41 107.457 230.309 110.661 225.549C114.539 219.79 119.318 214.776 125.285 211.163C129.092 208.854 133.216 207.12 137.463 205.805C141.805 204.462 146.295 203.575 150.842 203.411C154.57 203.28 158.291 203.64 161.926 204.459C165.269 205.213 168.515 206.326 171.694 207.595C177.873 210.063 183.853 213.092 190.308 214.809C190.609 214.891 190.914 214.964 191.217 215.038C189.487 217.167 187.89 219.422 186.444 221.782ZM301.802 202.442C290.655 208.048 278.389 208.903 266.664 204.795C257.668 201.645 249.333 196.814 239.827 195.242C243.012 190.48 245.67 185.381 248.872 180.627C252.75 174.865 257.532 169.854 263.498 166.238C267.306 163.931 271.43 162.198 275.679 160.883C280.019 159.54 284.509 158.65 289.056 158.489C292.781 158.355 296.504 158.716 300.139 159.534C303.483 160.288 306.728 161.404 309.908 162.673C316.087 165.138 322.067 168.167 328.522 169.887C328.844 169.971 329.169 170.053 329.493 170.132C320.942 181.62 315.369 195.619 301.802 202.442ZM459.391 137.754C453.356 147.779 446.072 155.683 434.794 159.739C423.552 163.784 412.67 163.025 401.709 158.683C393.868 155.574 386.348 151.78 378.029 150.334C381.217 145.566 383.878 140.462 387.082 135.702C390.961 129.943 395.743 124.929 401.709 121.316C405.516 119.009 409.64 117.273 413.89 115.961C418.23 114.615 422.719 113.728 427.266 113.567C430.992 113.433 434.715 113.794 438.35 114.612C441.694 115.366 444.939 116.482 448.119 117.748C454.298 120.216 460.278 123.245 466.733 124.962C466.986 125.03 467.24 125.093 467.494 125.156C464.53 129.132 461.986 133.447 459.391 137.754Z" fill="white"/>
        <path d="M600.454 121.987V126.493C587.809 141.346 566.916 146.36 548.585 139.621C539.289 136.204 530.55 131.182 520.528 130.148C507.525 128.808 492.978 133.483 483.221 142.189C475.679 148.917 471.566 158.074 466.042 166.325C460.586 174.475 453.482 180.654 444.281 184.243C434.33 188.124 423.814 188.812 413.59 185.641C404.485 182.818 396.196 177.791 386.815 175.79C373.96 173.05 359.535 176.606 348.834 184.088C340.007 190.256 335.184 199.492 329.655 208.403C318.904 225.724 299.315 236.39 278.69 231.48C269.426 229.274 261.184 224.203 252.057 221.583C239.365 217.939 225.601 220.292 214.185 226.769C195.991 237.097 192.62 260.301 174.697 270.82C165.581 276.17 154.409 278.733 143.918 277.081C134.439 275.591 126.12 270.689 117.168 267.567C104.779 263.249 91.9595 264.243 80.0159 269.644C69.3933 274.445 62.5591 282.666 56.7101 292.448C55.2308 294.923 53.7542 297.393 52.1903 299.784H48.937C51.8901 295.393 54.4366 290.684 57.3406 286.236C63.0367 277.504 70.4278 270.744 80.1005 266.647C90.2809 262.338 101.452 260.681 112.285 263.268C121.578 265.49 129.834 270.553 138.983 273.184C150.921 276.617 163.984 274.385 174.465 267.766C183.471 262.081 188.343 253.02 193.734 244.207C204.891 225.964 225.017 214.113 246.939 217.637C256.519 219.176 264.901 224.048 273.952 227.219C285.677 231.324 297.942 230.47 309.089 224.867C327.878 215.418 331.333 192.215 348.593 180.962C358.283 174.649 370.761 171.194 382.317 172.343C391.859 173.29 400.224 177.63 408.996 181.104C419.96 185.447 430.839 186.208 442.084 182.163C453.359 178.105 460.643 170.201 466.681 160.179C471.479 152.212 476.092 144.228 483.532 138.393C492.669 131.223 505.036 127.08 516.649 127.203C526.186 127.306 534.756 130.912 543.375 134.588C553.938 139.092 564.271 141.638 575.696 138.663C586.146 135.939 594.212 130.246 600.454 121.987Z" fill="white"/>
        <path d="M600.454 152.154V155.762C587.907 165.157 571.018 167.608 555.873 162.043C546.577 158.626 537.837 153.606 527.815 152.572C514.813 151.232 500.265 155.904 490.508 164.611C482.967 171.342 478.856 180.496 473.329 188.746C467.873 196.896 460.772 203.078 451.568 206.667C441.617 210.548 431.101 211.236 420.877 208.065C411.772 205.24 403.483 200.212 394.102 198.212C381.247 195.472 366.823 199.028 356.121 206.509C347.297 212.677 342.471 221.916 336.945 230.825C326.194 248.145 306.603 258.814 285.977 253.901C276.714 251.696 268.471 246.625 259.344 244.005C246.653 240.361 232.889 242.714 221.472 249.193C203.278 259.518 199.91 282.723 181.984 293.242C175.952 296.782 169.022 299.099 161.983 299.784C159.115 300.068 156.227 300.076 153.375 299.784C152.649 299.71 151.926 299.618 151.205 299.506C141.726 298.015 133.41 293.111 124.455 289.991C112.069 285.673 99.2468 286.664 87.3032 292.065C82.8435 294.082 79.0497 296.7 75.7172 299.784H71.7051C76.1266 295.275 81.3069 291.645 87.3878 289.071C97.5683 284.762 108.742 283.102 119.575 285.693C128.866 287.911 137.122 292.974 146.273 295.605C158.209 299.039 171.271 296.806 181.755 290.188C190.759 284.502 195.631 275.441 201.021 266.628C212.178 248.385 232.305 236.537 254.227 240.058C263.809 241.597 272.191 246.472 281.239 249.641C292.964 253.748 305.23 252.894 316.376 247.288C335.165 237.839 338.62 214.637 355.881 203.387C365.57 197.071 378.048 193.618 389.604 194.765C399.146 195.712 407.512 200.051 416.284 203.526C427.247 207.871 438.129 208.63 449.371 204.585C460.646 200.526 467.931 192.625 473.968 182.6C478.766 174.636 483.379 166.653 490.819 160.814C499.957 153.647 512.326 149.504 523.937 149.627C533.473 149.728 542.043 153.336 550.662 157.01C561.225 161.513 571.561 164.062 582.983 161.085C589.757 159.319 595.53 156.306 600.454 152.154Z" fill="white"/>
        <path d="M576.771 180.987C575.546 182.081 574.41 183.239 573.338 184.442C572.92 184.371 572.503 184.298 572.088 184.216C571.195 184.038 570.308 183.831 569.429 183.602C567.68 183.143 565.958 182.589 564.26 181.972C562.595 181.366 560.952 180.7 559.317 180.015C559.309 180.013 559.301 180.007 559.29 180.004C559.287 180.002 559.284 180.002 559.279 179.999C559.194 179.964 559.107 179.925 559.02 179.89C558.812 179.802 558.605 179.712 558.395 179.625C557.98 179.445 557.565 179.268 557.147 179.087C556.315 178.73 555.485 178.37 554.65 178.012C551.263 176.565 547.851 175.163 544.319 174.106C540.556 172.982 536.661 172.27 532.733 172.089C528.118 171.882 523.476 172.436 518.991 173.52C514.068 174.71 509.226 176.486 504.76 178.888C501.122 180.84 497.735 183.277 494.755 186.135C492.08 188.697 489.752 191.604 487.658 194.653C483.791 200.286 480.756 206.452 476.738 211.984C476.558 212.23 476.378 212.473 476.195 212.716C475.6 212.683 475.003 212.661 474.402 212.655C462.666 212.53 450.185 216.714 440.938 223.939C438.817 225.595 436.923 227.424 435.184 229.375C434.748 229.304 434.314 229.225 433.877 229.138C432.984 228.961 432.097 228.756 431.219 228.524C429.469 228.068 427.747 227.511 426.049 226.894C424.384 226.291 422.741 225.625 421.106 224.94C421.095 224.935 421.087 224.932 421.079 224.927C421.074 224.927 421.074 224.924 421.068 224.924C420.984 224.886 420.896 224.85 420.809 224.812C420.601 224.725 420.394 224.637 420.184 224.547C419.769 224.37 419.354 224.19 418.939 224.012C418.104 223.652 417.274 223.292 416.439 222.937C413.055 221.488 409.64 220.087 406.109 219.031C402.345 217.907 398.45 217.192 394.523 217.014C389.907 216.804 385.265 217.358 380.78 218.444C375.857 219.634 371.015 221.411 366.55 223.81C362.911 225.764 359.524 228.202 356.544 231.059C353.869 233.622 351.541 236.526 349.448 239.575C345.58 245.208 342.545 251.374 338.528 256.909C338.347 257.155 338.167 257.397 337.984 257.64C326.914 257.07 315.203 260.512 306.002 266.508C302.61 268.719 299.752 271.393 297.203 274.336C297.154 274.328 297.107 274.319 297.058 274.311C296.594 274.235 296.13 274.15 295.666 274.06C294.774 273.883 293.887 273.675 293.008 273.446C291.258 272.987 289.536 272.433 287.838 271.817C286.173 271.211 284.53 270.547 282.896 269.862C282.882 269.854 282.871 269.851 282.86 269.846C282.86 269.846 282.86 269.846 282.857 269.846C282.773 269.808 282.685 269.772 282.598 269.734C282.391 269.647 282.183 269.559 281.973 269.469C281.558 269.292 281.143 269.112 280.728 268.934C279.893 268.577 279.064 268.217 278.228 267.859C274.844 266.412 271.43 265.01 267.898 263.953C264.134 262.829 260.239 262.116 256.312 261.936C251.697 261.726 247.054 262.283 242.57 263.367C237.646 264.557 232.804 266.333 228.339 268.732C224.701 270.687 221.314 273.124 218.333 275.982C215.658 278.542 213.33 281.446 211.237 284.497C207.839 289.445 205.085 294.803 201.742 299.784H204.97C207.424 295.974 209.627 291.997 212.072 288.176C212.989 286.743 213.942 285.335 214.951 283.968C215.085 283.787 215.219 283.607 215.355 283.427C215.424 283.337 215.492 283.25 215.56 283.16C215.574 283.143 215.582 283.132 215.59 283.119C215.601 283.108 215.609 283.094 215.623 283.078C215.904 282.723 216.185 282.365 216.472 282.016C217.031 281.334 217.61 280.668 218.205 280.018C219.469 278.637 220.817 277.333 222.247 276.123C222.594 275.829 222.948 275.539 223.306 275.255C223.38 275.195 223.456 275.135 223.533 275.078C223.552 275.062 223.718 274.933 223.729 274.925C223.931 274.77 224.136 274.617 224.343 274.467C225.192 273.844 226.065 273.252 226.958 272.693C230.997 270.154 235.187 268.375 239.712 266.983C242.152 266.232 244.638 265.626 247.158 265.209C248.307 265.021 249.095 264.917 250.307 264.808C251.418 264.707 252.532 264.647 253.648 264.627C255.687 264.595 257.728 264.707 259.751 264.96C259.794 264.966 259.838 264.974 259.882 264.98C259.904 264.982 260.106 265.01 260.13 265.012C260.376 265.048 260.619 265.086 260.864 265.124C261.347 265.203 261.831 265.288 262.311 265.381C263.217 265.558 264.115 265.76 265.01 265.987C268.531 266.882 271.94 268.162 275.292 269.557C275.502 269.644 275.709 269.731 275.919 269.819C275.944 269.83 275.969 269.841 275.996 269.851L276.012 269.86C276.083 269.89 276.154 269.92 276.225 269.95C276.643 270.127 277.06 270.305 277.478 270.485C278.31 270.842 279.14 271.202 279.972 271.56C281.656 272.281 283.343 272.998 285.049 273.667C288.349 274.963 291.73 276.074 295.219 276.746C289.479 284.09 285.183 292.666 279.32 299.784H284.582C285.8 298.22 286.94 296.58 287.997 294.879C293.461 286.077 298.215 276.912 306.93 270.809C317.468 263.429 331.71 259.881 344.385 262.583C353.765 264.581 362.057 269.608 371.16 272.433C381.493 275.64 392.156 274.95 402.214 271.036C411.592 267.387 418.825 261.107 424.384 252.804C429.876 244.6 433.956 235.492 441.454 228.805C451.08 220.221 465.464 215.628 478.28 216.965C488.229 218.005 496.925 223.021 506.155 226.414C525.708 233.6 548.097 227.533 560.641 210.658C566.457 202.83 570.243 193.613 577.003 186.473C583.142 179.991 591.581 175.427 600.454 173.26V169.125C591.75 171.101 583.349 175.111 576.771 180.987ZM423.844 245.967C417.902 255.834 410.757 263.637 399.654 267.638C388.513 271.653 377.789 270.883 366.929 266.582C358.416 263.208 350.305 259.062 341.129 257.913C344.461 253.213 347.177 248.112 350.283 243.254C351.2 241.824 352.152 240.413 353.162 239.045C353.296 238.865 353.43 238.685 353.566 238.508C353.634 238.418 353.703 238.328 353.771 238.238C353.782 238.224 353.793 238.21 353.801 238.199C353.812 238.188 353.82 238.175 353.834 238.158C354.115 237.801 354.396 237.446 354.683 237.094C355.242 236.414 355.821 235.746 356.416 235.096C357.679 233.715 359.028 232.41 360.458 231.201C360.804 230.907 361.159 230.617 361.517 230.333C361.59 230.273 361.667 230.216 361.741 230.156C361.757 230.145 361.926 230.011 361.94 230.003C362.142 229.85 362.346 229.695 362.554 229.545C363.403 228.922 364.276 228.33 365.169 227.771C369.205 225.232 373.398 223.453 377.923 222.061C380.363 221.31 382.849 220.704 385.368 220.287C386.517 220.096 387.306 219.995 388.518 219.883C389.629 219.785 390.742 219.722 391.859 219.705C393.898 219.673 395.939 219.782 397.962 220.038C398.005 220.044 398.049 220.049 398.095 220.055C398.12 220.06 398.316 220.085 398.341 220.09C398.587 220.126 398.83 220.161 399.075 220.202C399.558 220.279 400.041 220.366 400.522 220.459C401.428 220.633 402.326 220.838 403.221 221.065C406.742 221.96 410.151 223.237 413.502 224.635C413.685 224.711 413.865 224.787 414.048 224.864C414.076 224.875 414.376 225 414.436 225.025C414.853 225.202 415.271 225.382 415.689 225.562C416.521 225.92 417.351 226.28 418.183 226.638C419.867 227.358 421.554 228.076 423.26 228.745C426.48 230.011 429.78 231.095 433.175 231.772C429.679 236.18 426.792 241.073 423.844 245.967ZM560.286 203.922C553.818 214.127 545.097 221.056 533.266 224.138C522.034 227.064 511.862 224.561 501.472 220.134C494.244 217.052 487.063 214.026 479.326 213.01C482.664 208.305 485.382 203.196 488.494 198.332C489.411 196.899 490.363 195.491 491.373 194.123C491.507 193.943 491.641 193.763 491.777 193.583C491.845 193.496 491.913 193.405 491.982 193.315C491.993 193.299 492.004 193.288 492.012 193.277C492.02 193.264 492.031 193.253 492.044 193.234C492.326 192.879 492.607 192.524 492.893 192.172C493.453 191.489 494.031 190.824 494.626 190.174C495.89 188.793 497.238 187.488 498.669 186.279C499.015 185.982 499.37 185.692 499.728 185.409C499.801 185.351 499.878 185.291 499.951 185.234C499.968 185.22 500.137 185.089 500.151 185.081C500.353 184.925 500.557 184.773 500.765 184.622C501.614 183.997 502.487 183.408 503.379 182.846C507.416 180.31 511.608 178.528 516.134 177.136C518.574 176.388 521.06 175.779 523.579 175.365C524.728 175.174 525.517 175.07 526.729 174.961C527.84 174.86 528.953 174.8 530.07 174.781C532.108 174.748 534.15 174.86 536.172 175.116C536.216 175.122 536.26 175.127 536.306 175.133C536.328 175.135 536.527 175.163 536.552 175.165C536.797 175.201 537.04 175.239 537.286 175.277C537.769 175.356 538.252 175.441 538.732 175.534C539.636 175.711 540.537 175.913 541.432 176.14C544.953 177.035 548.362 178.315 551.713 179.71C551.896 179.786 552.076 179.863 552.259 179.939C552.281 179.95 552.587 180.078 552.647 180.103C553.064 180.28 553.482 180.46 553.899 180.638C554.732 180.995 555.562 181.355 556.394 181.713C558.078 182.436 559.765 183.151 561.471 183.823C564.675 185.081 567.956 186.162 571.332 186.836C567.148 192.15 563.93 198.176 560.286 203.922Z" fill="white"/>
        <path d="M600.454 193.714V198.048C594.337 200.548 588.715 204.222 584.293 208.894C577.53 216.037 573.747 225.254 567.928 233.079C555.384 249.955 532.995 256.022 513.445 248.836C504.215 245.443 495.516 240.426 485.568 239.389C472.751 238.049 458.367 242.645 448.744 251.229C441.246 257.916 437.163 267.024 431.672 275.225C426.112 283.528 418.879 289.811 409.504 293.457C399.444 297.374 388.783 298.062 378.447 294.858C369.345 292.033 361.056 287.005 351.675 285.005C339 282.303 324.758 285.853 314.217 293.234C311.483 295.15 309.135 297.369 307.036 299.784H302.028C305.186 295.652 308.764 291.88 313.289 288.932C323.071 282.556 335.692 279.068 347.357 280.217C356.972 281.164 365.379 285.501 374.216 289.003C385.079 293.307 395.803 294.077 406.941 290.062C418.044 286.061 425.189 278.255 431.131 268.391C435.992 260.321 440.678 252.258 448.228 246.36C457.472 239.135 469.956 234.954 481.689 235.077C491.357 235.181 500.022 238.833 508.759 242.555C519.15 246.982 529.322 249.488 540.553 246.562C552.385 243.478 561.105 236.548 567.573 226.346C572.642 218.354 576.891 209.814 584.059 203.411C588.772 199.197 594.425 195.946 600.454 193.714Z" fill="white"/>
        <path d="M600.454 219.449V224.165C597.178 226.182 594.173 228.578 591.581 231.319C584.82 238.459 581.034 247.676 575.216 255.503C562.672 272.379 540.285 278.446 520.733 271.26C511.502 267.864 502.804 262.851 492.858 261.811C480.038 260.473 465.655 265.067 456.031 273.651C448.533 280.338 444.453 289.445 438.959 297.647C438.47 298.376 437.971 299.088 437.458 299.784H432.092C434.398 297.055 436.472 294.044 438.418 290.813C443.279 282.742 447.968 274.682 455.515 268.784C464.762 261.557 477.243 257.376 488.979 257.501C498.644 257.605 507.31 261.257 516.049 264.98C526.437 269.407 536.609 271.909 547.843 268.983C559.672 265.902 568.392 258.972 574.863 248.767C579.929 240.776 584.179 232.236 591.346 225.833C594.1 223.374 597.173 221.242 600.454 219.449Z" fill="white"/>
        <path d="M600.454 246.718V252.157C599.911 252.67 599.381 253.2 598.868 253.74C592.107 260.883 588.322 270.097 582.503 277.925C569.959 294.8 547.573 300.868 528.02 293.681C518.789 290.289 510.094 285.272 500.145 284.232C487.328 282.895 472.942 287.491 463.318 296.075C462.008 297.243 460.805 298.485 459.68 299.784H454.459C456.874 296.643 459.579 293.728 462.802 291.206C472.049 283.981 484.531 279.8 496.267 279.923C505.931 280.026 514.6 283.678 523.336 287.401C533.727 291.828 543.899 294.334 555.13 291.408C566.962 288.324 575.682 281.394 582.151 271.192C587.219 263.197 591.466 254.66 598.636 248.257C599.228 247.727 599.834 247.214 600.454 246.718Z" fill="white"/>
    </g>
</svg>
