<svg width="16" height="16" viewBox="0 0 16 16" fill="none" xmlns="http://www.w3.org/2000/svg">
<path d="M7.99967 14.6663C4.31767 14.6663 1.33301 11.6817 1.33301 7.99967C1.33301 4.31767 4.31767 1.33301 7.99967 1.33301C11.6817 1.33301 14.6663 4.31767 14.6663 7.99967C14.6623 11.6797 11.6797 14.6623 7.99967 14.6663ZM7.99967 2.66634C6.94484 2.66634 5.9137 2.97914 5.03663 3.56517C4.15957 4.1512 3.47598 4.98416 3.07232 5.9587C2.66865 6.93324 2.56303 8.00559 2.76882 9.04016C2.97461 10.0747 3.48256 11.025 4.22844 11.7709C4.97432 12.5168 5.92463 13.0247 6.95919 13.2305C7.99376 13.4363 9.06611 13.3307 10.0407 12.927C11.0152 12.5234 11.8481 11.8398 12.4342 10.9627C13.0202 10.0857 13.333 9.05451 13.333 7.99967C13.3314 6.58567 12.769 5.23004 11.7692 4.23019C10.7693 3.23034 9.41368 2.66793 7.99967 2.66634ZM11.333 8.66634H7.33301V4.66634H8.66634V7.33301H11.333V8.66634Z" fill="black"/>
</svg>
