<!-- Generated by IcoMoon.io -->
<svg version="1.1" xmlns="http://www.w3.org/2000/svg" width="42" height="32" viewBox="0 0 42 32">
<path d="M9.587 12.762c-0.469 0-0.919 0.073-1.367 0.139 0.145-0.496 0.294-1 0.534-1.454 0.24-0.658 0.614-1.229 0.986-1.804 0.311-0.622 0.86-1.043 1.264-1.575 0.423-0.517 0.999-0.861 1.455-1.291 0.448-0.449 1.035-0.673 1.501-0.99 0.488-0.284 0.913-0.599 1.367-0.748l1.133-0.475 0.997-0.421-1.020-4.143-1.255 0.308c-0.402 0.103-0.892 0.222-1.449 0.366-0.57 0.107-1.178 0.4-1.855 0.667-0.669 0.304-1.443 0.509-2.162 0.996-0.723 0.466-1.558 0.855-2.294 1.479-0.713 0.643-1.573 1.201-2.208 2.020-0.694 0.765-1.379 1.569-1.911 2.484-0.616 0.872-1.035 1.83-1.476 2.777-0.4 0.947-0.721 1.915-0.984 2.856-0.498 1.885-0.721 3.677-0.807 5.209-0.071 1.535-0.029 2.811 0.059 3.734 0.032 0.436 0.090 0.859 0.132 1.152l0.053 0.359 0.055-0.013c0.374 1.776 1.235 3.408 2.483 4.707s2.833 2.213 4.571 2.635c1.738 0.422 3.558 0.335 5.249-0.25s3.185-1.646 4.308-3.058c1.123-1.412 1.83-3.119 2.039-4.923s-0.089-3.631-0.859-5.27c-0.77-1.639-1.98-3.023-3.492-3.992s-3.262-1.483-5.048-1.483v0zM32.718 12.762c-0.469 0-0.919 0.073-1.367 0.139 0.145-0.496 0.294-1 0.534-1.454 0.24-0.658 0.614-1.229 0.986-1.804 0.311-0.622 0.86-1.043 1.264-1.575 0.423-0.517 0.999-0.861 1.455-1.291 0.448-0.449 1.035-0.673 1.501-0.99 0.488-0.284 0.913-0.599 1.367-0.748l1.133-0.475 0.997-0.421-1.020-4.143-1.255 0.308c-0.402 0.103-0.892 0.222-1.449 0.366-0.57 0.107-1.178 0.4-1.855 0.667-0.667 0.306-1.443 0.509-2.162 0.998-0.723 0.466-1.558 0.855-2.294 1.479-0.713 0.643-1.573 1.201-2.208 2.018-0.694 0.765-1.379 1.569-1.911 2.484-0.616 0.872-1.035 1.83-1.476 2.777-0.4 0.947-0.721 1.915-0.984 2.856-0.498 1.885-0.721 3.677-0.808 5.209-0.072 1.535-0.029 2.811 0.059 3.734 0.032 0.436 0.090 0.859 0.133 1.152l0.052 0.359 0.055-0.013c0.374 1.776 1.235 3.408 2.483 4.707s2.833 2.213 4.571 2.635 3.558 0.335 5.249-0.25c1.691-0.585 3.185-1.646 4.308-3.058s1.83-3.119 2.039-4.923c0.209-1.804-0.089-3.631-0.859-5.27s-1.98-3.023-3.492-3.992-3.262-1.483-5.048-1.483v0z"></path>
</svg>
