<svg xmlns="http://www.w3.org/2000/svg" width="16" height="16" fill="none"><path d="M7.227.99c-1.454.148-2.943.832-4.026 1.849A7.033 7.033 0 0 0 1.23 6.018a7.23 7.23 0 0 0-.133 3.435 7.085 7.085 0 0 0 3.719 4.837A6.762 6.762 0 0 0 8 15.043a6.56 6.56 0 0 0 2.019-.285 7.08 7.08 0 0 0 4.739-4.739 7.208 7.208 0 0 0 .145-3.472c-.421-2.043-1.787-3.835-3.663-4.804A6.93 6.93 0 0 0 8.735.989 11.326 11.326 0 0 0 7.227.99M8.765 2.2a5.88 5.88 0 0 1 3.695 2.013 5.887 5.887 0 0 1 1.339 3.022 7.381 7.381 0 0 1 0 1.53 5.852 5.852 0 0 1-4.333 4.898c-.525.134-.92.183-1.466.183-1.991 0-3.775-.961-4.884-2.631a5.807 5.807 0 0 1-.916-2.45 7.67 7.67 0 0 1 0-1.53A5.88 5.88 0 0 1 4.213 3.54 5.942 5.942 0 0 1 7.2 2.203 8.101 8.101 0 0 1 8.765 2.2M5.377 5.547a.71.71 0 0 0-.446.492c-.127.505.377.969.873.804a.685.685 0 0 0 .307-1.087.727.727 0 0 0-.734-.209m4.716.036a.67.67 0 0 0-.32.912c.268.549 1.06.489 1.254-.095a.686.686 0 0 0-.411-.843.744.744 0 0 0-.523.026M5.446 9.135a.77.77 0 0 0-.205.149c-.089.106-.158.346-.135.471.038.2.214.452.545.778.496.49.993.787 1.594.953.241.067.3.073.755.073s.514-.006.755-.073c.615-.17 1.109-.469 1.618-.979.428-.428.567-.688.509-.947a.547.547 0 0 0-.26-.387.55.55 0 0 0-.42-.095c-.163.025-.302.128-.488.362-.48.607-1.08.933-1.714.933-.636 0-1.23-.323-1.715-.933-.179-.225-.28-.309-.417-.347a.542.542 0 0 0-.422.042" fill-rule="evenodd" fill="#000"/></svg>