<svg width="16" height="16" viewBox="0 0 16 16" fill="none" xmlns="http://www.w3.org/2000/svg">
<path d="M8 1.33301C6.162 1.33301 4.66667 2.82834 4.66667 4.66634C4.66667 6.50434 6.162 7.99967 8 7.99967C9.838 7.99967 11.3333 6.50434 11.3333 4.66634C11.3333 2.82834 9.838 1.33301 8 1.33301ZM8 6.66634C6.89733 6.66634 6 5.76901 6 4.66634C6 3.56367 6.89733 2.66634 8 2.66634C9.10267 2.66634 10 3.56367 10 4.66634C10 5.76901 9.10267 6.66634 8 6.66634ZM14 13.9997V13.333C14 10.7603 11.906 8.66634 9.33333 8.66634H6.66667C4.09333 8.66634 2 10.7603 2 13.333V13.9997H3.33333V13.333C3.33333 11.495 4.82867 9.99967 6.66667 9.99967H9.33333C11.1713 9.99967 12.6667 11.495 12.6667 13.333V13.9997H14Z" fill="black"/>
</svg>
