<svg xmlns="http://www.w3.org/2000/svg" width="32" height="32"><path d="M13.48 4.268c-.448.113-.756.327-1.347.932l-.586.602-.442.034c-1.088.083-2.123.601-3.006 1.506-.774.794-6.196 6.873-6.532 7.324-.624.839-1.145 1.987-1.414 3.121-.113.479-.126.655-.126 1.733 0 1.335.045 1.649.383 2.663.779 2.339 2.652 4.266 4.956 5.1 1.018.369 1.779.502 2.874.502 1.307 0 2.291-.218 3.547-.786 1.345-.608 2.706-1.845 3.536-3.214.237-.392.624-1.213.624-1.327 0-.032.024-.058.053-.058.029 0 .053.026.053.058 0 .114.387.935.624 1.327.83 1.369 2.191 2.606 3.536 3.214 1.256.568 2.24.786 3.547.786 1.095 0 1.856-.133 2.874-.502 2.304-.834 4.177-2.761 4.956-5.1.341-1.021.384-1.324.382-2.69-.002-1.168-.009-1.254-.153-1.811-.335-1.304-.868-2.4-1.609-3.309-.33-.406-3.982-4.485-4.189-4.68-.337-.316-.848-.12-.848.326 0 .193.052.268.662.949.364.406.658.743.653.747a6.016 6.016 0 0 1-.488-.12c-.78-.211-1.382-.288-2.24-.287-.827.001-1.399.07-2.133.259-1.889.487-3.657 1.759-4.74 3.411l-.327.499-.014-2.712c-.013-2.56-.008-2.735.093-3.133.254-1.006 1.034-1.954 2.001-2.433.591-.293 1.003-.387 1.707-.388 1.239-.003 2.107.416 3.105 1.497.296.322.548.547.634.569.3.075.607-.192.607-.526 0-.225-1.033-1.336-1.6-1.721-.631-.428-1.495-.741-2.198-.794l-.442-.034-.586-.605c-.485-.499-.652-.635-.96-.781-.358-.169-.4-.176-1.015-.176-.616 0-.655.007-.995.174a3.318 3.318 0 0 0-.626.419L16 5.077l-.273-.245a3.123 3.123 0 0 0-.626-.415c-.313-.149-.416-.171-.888-.184-.293-.009-.623.007-.733.035m5.036 1.068c.144.073.631.533.631.595 0 .023-.042.043-.094.043-.174.002-.955.356-1.352.612-.217.141-.568.43-.781.642l-.387.387v-.689c0-.772.053-.969.336-1.263.247-.255.483-.387.771-.429.282-.042.688.005.876.102m-3.88-.035c.259.109.594.431.721.693.094.193.11.329.11.923v.698l-.387-.387a5.942 5.942 0 0 0-.781-.642c-.397-.256-1.178-.61-1.352-.612-.052 0-.094-.02-.094-.043 0-.084.512-.541.694-.62.237-.102.855-.107 1.089-.01m-2.023 1.61c1.26.301 2.405 1.432 2.755 2.72.108.398.116.569.138 2.956.013 1.393.015 2.629.005 2.746l-.018.214-.354-.534a8.303 8.303 0 0 0-3.272-2.881c-1.197-.582-2.256-.823-3.627-.824-.858-.001-1.46.076-2.24.287a5.869 5.869 0 0 1-.489.12c-.005-.004.782-.89 1.749-1.967 1.773-1.977 2.055-2.246 2.689-2.564.767-.384 1.77-.488 2.664-.273m-3.744 5.412a7.067 7.067 0 0 1 2.944.91c1.767 1.012 2.976 2.616 3.479 4.615.134.533.146.663.147 1.645.001.836-.02 1.165-.096 1.52a7.256 7.256 0 0 1-1.986 3.66c-3.059 3.071-8.156 2.766-10.823-.646a7.303 7.303 0 0 1-1.357-6.159 7.293 7.293 0 0 1 3.826-4.825c.932-.465 1.831-.686 3.13-.768.059-.004.39.018.736.048m15.504-.001c1.731.153 3.203.82 4.431 2.008 3.481 3.37 2.751 9.111-1.466 11.528-1.889 1.083-4.247 1.236-6.298.409-2.232-.901-3.869-2.863-4.383-5.254-.076-.355-.097-.684-.096-1.52.001-.982.013-1.112.147-1.645.503-1.999 1.715-3.607 3.479-4.616 1.027-.588 2.031-.865 3.466-.958.059-.003.383.018.72.048m-16.8 1.497c-2.993.325-5.267 3.009-5.096 6.015.037.65.103.854.324.998.165.109.45.064.592-.092.09-.1.101-.206.103-1.026.002-.947.042-1.2.297-1.901.091-.249.502-1.013.546-1.013.008 0 .004.275-.009.61-.132 3.462 2.681 6.236 6.123 6.039.659-.038.652-.02-.133.368-.732.362-1.189.465-2.08.47-.623.003-.816-.016-1.164-.116-1.156-.332-2.002-.898-2.653-1.775-.335-.453-.511-.561-.773-.475-.569.188-.421.736.438 1.615.77.787 1.537 1.247 2.589 1.551a5.714 5.714 0 0 0 5.678-1.527 5.33 5.33 0 0 0 1.087-1.549 5.76 5.76 0 0 0-1.709-7.047 5.836 5.836 0 0 0-4.16-1.145m15.52 0c-1.995.223-3.787 1.541-4.599 3.381a5.752 5.752 0 0 0 1.253 6.462c.513.498.94.797 1.549 1.086 2.843 1.352 6.233.171 7.64-2.662a5.722 5.722 0 0 0-.35-5.701 5.751 5.751 0 0 0-4.217-2.57c-.6-.061-.7-.061-1.276.004m-13.66 1.113c.549.156.989.35 1.394.612 1.967 1.275 2.718 3.83 1.75 5.957-.156.343-.173.36-.516.515-.788.355-1.346.463-2.185.422-1.315-.064-2.358-.549-3.267-1.52-.869-.928-1.277-1.978-1.275-3.284a4.47 4.47 0 0 1 .482-2.067c.089-.174.172-.242.44-.362.44-.197.668-.27 1.123-.357.536-.102 1.546-.061 2.054.084m15.527-.007c.22.058.561.178.757.267.295.133.376.198.467.375.327.641.481 1.309.481 2.086.001 1.369-.494 2.535-1.472 3.47-.882.843-1.844 1.256-3.069 1.315-.839.041-1.397-.067-2.185-.422-.343-.155-.36-.172-.516-.515a4.768 4.768 0 0 1 .083-4.088c.708-1.416 1.932-2.293 3.641-2.608.307-.056 1.425.017 1.813.12m3.065 2.488c.37.755.469 1.19.476 2.08.006.828-.072 1.248-.356 1.92-.46 1.088-1.418 2.056-2.475 2.5-.72.303-1.106.378-1.91.374-.891-.005-1.348-.108-2.08-.47-.785-.388-.792-.406-.133-.368 3.441.197 6.255-2.577 6.123-6.037-.028-.727-.001-.727.355.001" fill-rule="evenodd"/></svg>