<!-- Generated by IcoMoon.io -->
<svg version="1.1" xmlns="http://www.w3.org/2000/svg" width="32" height="32" viewBox="0 0 32 32">
<path d="M8.96 14.355l-2.323-0.813c-0.25-0.090-0.525 0.045-0.614 0.294l-2.842 8.109c-0.090 0.25 0.045 0.525 0.294 0.614l2.323 0.813c0.25 0.090 0.525-0.045 0.614-0.294l2.842-8.109c0.090-0.25-0.045-0.525-0.294-0.614zM9.728 15.558l-2.573 7.347 1.235 0.896c2.637 2.592 3.053 3.142 5.619 5.709 1.082 1.082 2.445-0.134 2.022-0.723l-2.067-1.971c-0.128-0.122-0.128-0.32-0.006-0.448s0.326-0.128 0.454-0.006l2.342 2.246 0.256 0.237 0.243 0.218c0.717 0.646 2.214-0.646 1.549-1.299l-2.342-2.246c-0.128-0.122-0.128-0.326-0.006-0.454s0.326-0.128 0.454-0.006l2.342 2.246c0.506 0.48 1.242-0.051 1.498-0.55 0.166-0.314 0.16-0.621-0.090-0.877l-2.342-2.246c-0.128-0.122-0.128-0.326-0.006-0.454s0.326-0.128 0.454-0.006l2.362 2.266c0.698 0.698 1.997-0.73 1.478-1.248l-3.258-3.232c-1.005-0.998-1.888-1.306-2.963-0.576-1.53 1.037-2.944 0.934-3.866 0.435-0.538-0.294-1.005-0.781-1.114-1.35-0.090-0.474 0.070-0.922 0.55-1.21l2.682-1.594-4.909-1.101zM24.774 22.694l-2.502-7.136c-1.498 0.269-6.272 0.902-6.682 1.248-0.032 0.032-0.064 0.058-0.102 0.077l-3.219 1.914c-0.416 0.243-0.269 0.691-0.006 1.005 0.141 0.166 0.326 0.32 0.55 0.442 0.749 0.403 1.907 0.474 3.2-0.403 1.35-0.915 2.547-0.563 3.77 0.653l3.168 3.149 1.824-0.947zM25.363 13.542l-2.323 0.813c-0.25 0.090-0.384 0.365-0.294 0.614l2.714 7.757c0.102 0.262 0.122 0.506 0.371 0.627 0.115 0.058 0.243 0.064 0.371 0.019l2.323-0.813c0.25-0.090 0.384-0.365 0.294-0.614l-2.842-8.109c-0.083-0.25-0.365-0.384-0.614-0.294zM17.459 4.301l-1.459-2.246-1.446 2.24c-0.045 0.070-0.109 0.128-0.192 0.147l-2.586 0.691 1.683 2.074c0.051 0.058 0.083 0.141 0.077 0.224l-0.147 2.675 2.502-0.966c0.070-0.026 0.154-0.032 0.23 0l2.496 0.966-0.141-2.675c-0.006-0.077 0.019-0.154 0.070-0.218l1.69-2.080-2.586-0.691c-0.083-0.026-0.147-0.070-0.192-0.141zM26.285 7.104l-0.653-1.005-0.646 0.992c-0.038 0.070-0.109 0.128-0.192 0.147l-1.158 0.307 0.749 0.922c0.051 0.058 0.083 0.141 0.077 0.224l-0.064 1.197 1.12-0.429c0.070-0.026 0.154-0.032 0.23 0l1.12 0.429-0.064-1.197c-0.006-0.077 0.019-0.154 0.070-0.218l0.755-0.928-1.158-0.307c-0.070-0.019-0.141-0.064-0.186-0.134zM7.021 7.104l-0.653-1.005-0.646 0.992c-0.038 0.070-0.109 0.128-0.192 0.147l-1.158 0.307 0.749 0.928c0.051 0.058 0.083 0.141 0.077 0.224l-0.064 1.197 1.12-0.429c0.070-0.026 0.154-0.032 0.23 0l1.12 0.429-0.064-1.197c-0.006-0.077 0.019-0.154 0.070-0.218l0.755-0.928-1.158-0.307c-0.077-0.026-0.141-0.070-0.186-0.141z"></path>
</svg>
