<svg xmlns="http://www.w3.org/2000/svg" width="32" height="32"><path d="M11.852.488C10.677.656 9.581 1.617 9.212 2.8c-.163.525-.163 1.395.001 1.92a3.41 3.41 0 0 0 2.506 2.295c.215.046.668.077 1.121.077l.76.001v1.116l-.227.056c-3.064.758-5.504 2.447-7.208 4.988-.714 1.065-1.41 2.702-1.684 3.957a11.963 11.963 0 0 0 .486 6.726c.919 2.426 2.683 4.557 4.877 5.893a11.78 11.78 0 0 0 10.762.792c3.894-1.65 6.571-5.211 7.104-9.446.385-3.063-.522-6.262-2.483-8.754a13.906 13.906 0 0 0-1.772-1.796c-1.365-1.113-2.98-1.903-4.828-2.36l-.227-.056V7.093l.76-.001c.453 0 .906-.031 1.121-.077a3.41 3.41 0 0 0 2.506-2.295c.164-.526.164-1.395 0-1.92A3.526 3.526 0 0 0 21.372.955a2.923 2.923 0 0 0-1.287-.471c-.506-.07-7.739-.067-8.233.004m8.207 1.006a2.27 2.27 0 0 1 1.166.641c.54.539.764 1.218.652 1.973a2.247 2.247 0 0 1-.65 1.282c-.532.545-.966.69-2.063.69H18.4v-.723c0-.763-.051-.975-.264-1.089-.14-.075-4.132-.075-4.272 0-.213.114-.264.326-.264 1.089v.723h-.764c-.799 0-1.119-.058-1.556-.28-.299-.153-.772-.655-.95-1.01-.306-.609-.306-1.451.001-2.064.289-.576.971-1.111 1.565-1.228.343-.067 7.808-.071 8.163-.004M17.387 6.6v1.373h-2.774V5.227h2.774V6.6m-.555 2.415c1.517.121 2.705.454 4.048 1.135 3.233 1.639 5.389 4.724 5.837 8.355.081.652.069 1.979-.024 2.687-.416 3.175-2.286 6.063-5.026 7.763-1.186.735-2.67 1.278-4.121 1.507-.597.094-2.495.094-3.092 0-1.451-.229-2.935-.772-4.121-1.507-.97-.602-2.057-1.566-2.756-2.445-2.019-2.538-2.781-5.753-2.132-8.99.625-3.113 2.8-5.934 5.691-7.381 1.839-.92 3.685-1.285 5.696-1.124m.426 6.481c-2.11.831-3.879 1.555-3.931 1.608-.118.12-3.14 7.815-3.14 7.997 0 .073.024.179.055.235.081.153.358.279.523.238.076-.02 1.808-.69 3.847-1.491 2.039-.8 3.758-1.471 3.82-1.49a.653.653 0 0 0 .224-.155c.142-.152 3.157-7.819 3.157-8.029 0-.24-.229-.437-.5-.43-.153.003-1.38.462-4.055 1.517m3.057.144-1.125 2.867c-.557 1.422-1.029 2.604-1.05 2.625-.02.022-.827-.752-1.792-1.718-.966-.966-1.744-1.769-1.728-1.785.04-.04 5.66-2.257 5.739-2.263.046-.004.033.079-.044.274m-2.943 6.245c-.014.041-5.753 2.324-5.786 2.301-.008-.005.481-1.267 1.085-2.805.605-1.537 1.123-2.853 1.15-2.925.048-.124.14-.041 1.808 1.627.967.966 1.751 1.777 1.743 1.802" fill-rule="evenodd"/></svg>