<!-- Generated by IcoMoon.io -->
<svg version="1.1" xmlns="http://www.w3.org/2000/svg" width="32" height="32" viewBox="0 0 32 32">
<path d="M15.996 2.5c-1.992 0.010-2.896 2.607-4.195 3.357-1.057 0.438-3.885-0.861-5.342 0.596-0.855 0.855-0.766 2.101-0.622 3.347 0.098 0.87 0.214 1.363 0.040 1.947-0.31 1.050-3.378 2.163-3.378 4.252 0 2.139 3.061 3.206 3.371 4.255 0.174 0.584 0.058 1.077-0.040 1.947-0.143 1.245-0.231 2.492 0.622 3.347 1.457 1.457 4.283 0.158 5.342 0.596 1.301 0.75 2.205 3.354 4.202 3.357 1.999-0.004 2.902-2.606 4.202-3.357 1.058-0.437 3.884 0.861 5.342-0.596 0.854-0.855 0.766-2.102 0.622-3.347-0.098-0.87-0.214-1.363-0.041-1.947 0.31-1.049 3.378-2.163 3.378-4.252 0-1.086-0.763-1.891-1.665-2.598-0.854-0.669-1.587-1.226-1.713-1.658-0.149-0.509-0.058-1.077 0.041-1.947 0.142-1.245 0.231-2.492-0.622-3.347-1.457-1.457-4.283-0.157-5.342-0.596-1.299-0.75-2.202-3.348-4.195-3.357h-0.007zM21.362 9.713c0.247-0.009 0.488 0.085 0.664 0.258 0.354 0.352 0.354 0.924 0 1.276l-10.774 10.775c-0.352 0.354-0.924 0.354-1.276 0-0.349-0.352-0.349-0.918 0-1.269l10.781-10.782c0.163-0.159 0.379-0.252 0.606-0.258zM12.185 10.833c0.746 0 1.35 0.605 1.35 1.35s-0.604 1.35-1.35 1.35c-0.746 0-1.35-0.605-1.35-1.35s0.605-1.35 1.35-1.35zM19.821 18.467c0.745 0 1.35 0.605 1.35 1.35s-0.605 1.35-1.35 1.35c-0.745 0-1.35-0.605-1.35-1.35s0.605-1.35 1.35-1.35z"></path>
</svg>
