<!-- Generated by IcoMoon.io -->
<svg version="1.1" xmlns="http://www.w3.org/2000/svg" width="32" height="32" viewBox="0 0 32 32">
<path d="M4 6.444c-0.583 0-1.063 0.188-1.438 0.563s-0.563 0.854-0.563 1.437v2.5l12.25 8.938c1.167 0.792 2.333 0.792 3.5 0l12.25-8.938v-2.5c0-0.583-0.188-1.063-0.563-1.438s-0.854-0.563-1.438-0.563h-24zM2 13.444v11c0 0.583 0.188 1.063 0.563 1.438s0.854 0.563 1.438 0.563h24c0.583 0 1.063-0.188 1.438-0.563s0.563-0.854 0.563-1.438v-11l-11.063 8.063c-0.875 0.667-1.854 1-2.937 1s-2.063-0.333-2.938-1l-11.063-8.063zM0 8.444c0.042-1.125 0.438-2.063 1.188-2.813s1.688-1.146 2.813-1.188h24c1.125 0.042 2.063 0.438 2.812 1.188s1.146 1.688 1.188 2.813v16c-0.042 1.125-0.438 2.063-1.188 2.812s-1.687 1.146-2.812 1.188h-24c-1.125-0.042-2.063-0.438-2.813-1.188s-1.146-1.687-1.188-2.812v-16z"></path>
</svg>
