<!-- Generated by IcoMoon.io -->
<svg version="1.1" xmlns="http://www.w3.org/2000/svg" width="32" height="32" viewBox="0 0 32 32">
<path d="M6.24 4.912c-0.689 0.079-1.164 0.209-1.645 0.45-1.075 0.538-1.878 1.501-2.189 2.627-0.217 0.788-0.226 1.131-0.206 8.358 0.017 6.429 0.025 6.962 0.114 7.33 0.148 0.62 0.33 1.051 0.642 1.52 0.645 0.968 1.533 1.557 2.751 1.824 0.433 0.095 0.898 0.099 10.293 0.099s9.86-0.004 10.293-0.099c0.656-0.144 1.080-0.317 1.57-0.644 0.93-0.622 1.594-1.58 1.819-2.697l0.005-0.027c0.115-0.552 0.174-3.178 0.173-7.733 0-4.503-0.057-7.016-0.173-7.573-0.351-1.695-1.591-2.955-3.294-3.348l-0.5-0.115-9.626-0.009c-5.295-0.005-9.807 0.011-10.027 0.037zM25.926 5.938c0.617 0.101 0.87 0.195 1.327 0.491 0.848 0.549 1.391 1.42 1.469 2.354l0.031 0.364-5.684 3.973c-3.126 2.185-5.857 4.064-6.069 4.175-0.72 0.375-1.28 0.375-2 0-0.212-0.111-2.943-1.99-6.069-4.175l-5.684-3.973 0.031-0.364c0.078-0.934 0.621-1.805 1.469-2.354 0.685-0.444 1.009-0.511 2.72-0.563 0.718-0.021 5.050-0.033 9.626-0.026 7.296 0.012 8.383 0.024 8.833 0.098zM8.631 14.122c2.967 2.076 5.526 3.854 5.687 3.952s0.443 0.241 0.627 0.318c0.306 0.129 0.397 0.141 1.055 0.141s0.749-0.012 1.055-0.141c0.184-0.077 0.466-0.221 0.627-0.318s2.723-1.878 5.692-3.956l5.399-3.779 0.044 0.737c0.024 0.406 0.031 3.197 0.017 6.204-0.031 6.535-0.022 6.42-0.596 7.307-0.398 0.613-1.020 1.111-1.658 1.326-0.733 0.247-0.721 0.247-10.58 0.247-9.854 0-9.847 0-10.577-0.246-0.826-0.278-1.649-1.072-1.976-1.908-0.236-0.602-0.246-0.913-0.247-7.459 0-3.41 0.008-6.2 0.019-6.2 0.010 0 2.445 1.698 5.412 3.775z"></path>
</svg>
