<!-- Generated by IcoMoon.io -->
<svg version="1.1" xmlns="http://www.w3.org/2000/svg" width="30" height="32" viewBox="0 0 30 32">
<path d="M24.632 11.789c-0.079-2.684-1.007-4.914-2.783-6.691s-4.007-2.704-6.691-2.783c-2.684 0.079-4.914 1.007-6.691 2.783s-2.704 4.007-2.783 6.691c0 0.947 0.336 2.191 1.007 3.73 0.671 1.579 1.52 3.217 2.546 4.914 1.026 1.658 2.072 3.197 3.138 4.618 1.066 1.461 1.993 2.684 2.783 3.671 0.789-0.987 1.717-2.211 2.783-3.671 1.066-1.421 2.112-2.96 3.138-4.618 1.066-1.697 1.934-3.336 2.605-4.914 0.632-1.539 0.947-2.783 0.947-3.73zM26.526 11.789c-0.079 1.776-0.711 3.829-1.895 6.158-1.224 2.329-2.605 4.579-4.145 6.75-1.54 2.211-2.842 3.967-3.908 5.27-0.395 0.474-0.868 0.71-1.421 0.71s-1.026-0.237-1.421-0.71c-1.066-1.303-2.368-3.059-3.908-5.27-1.539-2.171-2.921-4.421-4.145-6.75-1.184-2.329-1.816-4.381-1.895-6.158 0.079-3.237 1.184-5.921 3.316-8.053s4.816-3.237 8.053-3.316c3.237 0.079 5.921 1.184 8.053 3.316s3.237 4.816 3.316 8.053zM12.316 11.789c0.039 1.066 0.513 1.895 1.421 2.487 0.947 0.474 1.895 0.474 2.842 0 0.908-0.592 1.382-1.421 1.421-2.487-0.039-1.066-0.513-1.895-1.421-2.487-0.947-0.474-1.895-0.474-2.842 0-0.908 0.592-1.382 1.421-1.421 2.487zM15.158 16.526c-1.776-0.039-3.138-0.829-4.086-2.368-0.868-1.579-0.868-3.158 0-4.737 0.947-1.539 2.309-2.329 4.086-2.368 1.776 0.039 3.138 0.829 4.086 2.368 0.868 1.579 0.868 3.158 0 4.737-0.947 1.539-2.309 2.329-4.086 2.368z"></path>
</svg>
