<!-- Generated by IcoMoon.io -->
<svg version="1.1" xmlns="http://www.w3.org/2000/svg" width="32" height="32" viewBox="0 0 32 32">
<path d="M22.263 16.704l6.631 2.842c0.513 0.237 0.908 0.612 1.184 1.125 0.237 0.474 0.296 0.987 0.178 1.54l-1.421 6.632c-0.316 1.184-1.085 1.816-2.309 1.895-0.355 0-0.711 0-1.066 0-0.276-0.039-0.553-0.059-0.829-0.059-4.618-0.395-8.783-1.796-12.493-4.204s-6.651-5.546-8.822-9.415c-2.171-3.829-3.276-8.112-3.316-12.849 0.079-1.224 0.711-1.993 1.895-2.309l6.632-1.421c0.553-0.118 1.066-0.039 1.539 0.237 0.513 0.237 0.888 0.612 1.125 1.125l2.842 6.632c0.395 1.066 0.158 1.993-0.711 2.783l-2.368 1.954c1.618 2.763 3.809 4.954 6.572 6.572l1.954-2.369c0.79-0.868 1.717-1.105 2.783-0.71zM26.526 28.842c0.237 0 0.395-0.118 0.474-0.355l1.421-6.632c0.039-0.276-0.059-0.454-0.296-0.533l-6.632-2.842c-0.197-0.079-0.375-0.040-0.533 0.118l-1.954 2.428c-0.711 0.71-1.52 0.849-2.428 0.414-3.079-1.776-5.507-4.204-7.283-7.283-0.434-0.908-0.296-1.717 0.414-2.428l2.428-1.954c0.158-0.158 0.197-0.336 0.118-0.533l-2.842-6.632c-0.118-0.237-0.296-0.336-0.533-0.296l-6.632 1.421c-0.237 0.079-0.355 0.237-0.355 0.474 0.039 4.579 1.164 8.724 3.375 12.434 2.171 3.71 5.112 6.651 8.822 8.822 3.71 2.211 7.855 3.336 12.434 3.375z"></path>
</svg>
