<!-- Generated by IcoMoon.io -->
<svg version="1.1" xmlns="http://www.w3.org/2000/svg" width="36" height="32" viewBox="0 0 36 32">
<path d="M35.881 13.319l-7.947 7.173 1.877 10.131c0.082 0.443-0.115 0.891-0.508 1.155-0.222 0.15-0.486 0.226-0.75 0.226-0.203 0-0.407-0.045-0.593-0.136l-9.826-4.783-9.825 4.782c-0.429 0.21-0.95 0.176-1.343-0.090-0.393-0.265-0.589-0.712-0.508-1.155l1.877-10.131-7.948-7.172c-0.347-0.314-0.473-0.784-0.323-1.211s0.55-0.74 1.031-0.805l10.984-1.477 4.912-9.217c0.43-0.807 1.859-0.807 2.289 0l4.912 9.217 10.983 1.477c0.481 0.065 0.88 0.377 1.031 0.805s0.024 0.895-0.323 1.211z"></path>
</svg>
