<!-- Generated by IcoMoon.io -->
<svg version="1.1" xmlns="http://www.w3.org/2000/svg" width="32" height="32" viewBox="0 0 32 32">
<path d="M4.708 1.554c-1.448 0.212-2.698 1.312-3.056 2.688-0.182 0.698-0.222 1.91-0.2 6.048 0.022 3.706 0.026 3.828 0.136 4.232 0.064 0.228 0.216 0.612 0.338 0.854 0.22 0.432 0.316 0.53 6.762 6.974 5.24 5.236 6.634 6.602 7.018 6.874 1.928 1.356 4.14 1.326 6.028-0.082 0.664-0.498 6.91-6.744 7.408-7.408 1.17-1.568 1.398-3.46 0.62-5.12-0.448-0.954-0.476-0.986-7.2-7.724-3.476-3.486-6.466-6.454-6.642-6.594-0.358-0.282-0.774-0.511-1.224-0.667l-0.030-0.009c-0.274-0.092-0.58-0.098-4.96-0.106-2.576-0.006-4.814 0.012-4.998 0.040zM14.294 4.072c0.314 0.198 12.362 12.254 12.794 12.8 0.54 0.688 0.698 1.092 0.698 1.794 0 0.704-0.158 1.108-0.7 1.794-0.514 0.652-6.224 6.332-6.792 6.756-0.592 0.444-0.97 0.576-1.628 0.578-0.566 0-0.986-0.126-1.428-0.426-0.467-0.372-0.883-0.74-1.279-1.127l0.003 0.003c-1.634-1.552-11.728-11.698-11.89-11.95l-0.152-0.24v-4.588c0-4.37 0.004-4.594 0.1-4.772 0.189-0.373 0.525-0.647 0.93-0.75l0.010-0.002c0.102-0.020 2.19-0.034 4.64-0.030l4.454 0.008 0.24 0.152zM10.226 8.854c-0.543 0.143-0.981 0.508-1.219 0.989l-0.005 0.011c-0.156 0.32-0.176 0.406-0.176 0.812 0 0.554 0.152 0.928 0.532 1.308s0.754 0.532 1.308 0.532c0.025 0.001 0.055 0.002 0.085 0.002 0.483 0 0.918-0.205 1.222-0.533l0.001-0.001c0.329-0.306 0.534-0.741 0.534-1.223 0-0.030-0.001-0.059-0.002-0.089l0 0.004c0-0.38-0.022-0.502-0.142-0.756-0.203-0.404-0.521-0.725-0.912-0.925l-0.012-0.005c-0.244-0.102-0.527-0.161-0.825-0.161-0.138 0-0.272 0.013-0.403 0.037l0.014-0.002z"></path>
</svg>
