<!-- Generated by IcoMoon.io -->
<svg version="1.1" xmlns="http://www.w3.org/2000/svg" width="32" height="32" viewBox="0 0 32 32">
<path d="M7.8 15.505c-1.452 0-2.635 1.182-2.635 2.635 0 1.442 1.167 2.616 2.606 2.632h0.058c1.439-0.016 2.606-1.189 2.606-2.632 0-1.453-1.182-2.635-2.635-2.635z"></path>
<path d="M11.458 24.838c-0.014 0.106-0.022 0.213-0.022 0.322v4.91h9.128v-4.91c0-0.868-0.476-1.661-1.242-2.069-0.338-0.184-0.719-0.28-1.107-0.28h-2.159c-0.016 0-0.032 0.003-0.048 0.003s-0.032-0.002-0.048-0.003h-2.181c-0.388 0-0.769 0.096-1.102 0.278-0.671 0.357-1.117 1.009-1.218 1.75z"></path>
<path d="M3.227 24.121v4.91h7.209v-3.872c0-0.145 0.011-0.287 0.029-0.427 0.006-0.046 0.015-0.090 0.024-0.134 0.016-0.095 0.034-0.189 0.058-0.282 0.013-0.051 0.028-0.101 0.044-0.151 0.027-0.085 0.056-0.169 0.088-0.251 0.020-0.049 0.040-0.098 0.062-0.146 0.037-0.083 0.079-0.163 0.123-0.242 0.024-0.043 0.046-0.085 0.071-0.127 0.057-0.093 0.121-0.183 0.188-0.27 0.018-0.023 0.032-0.047 0.050-0.070 0.086-0.108 0.181-0.21 0.28-0.307 0.027-0.026 0.056-0.048 0.083-0.073 0.060-0.055 0.12-0.111 0.184-0.161-0.434-0.47-1.057-0.748-1.715-0.748h-2.147c-0.019 0-0.038 0.003-0.058 0.003s-0.038-0.003-0.058-0.003h-2.166c-1.295 0-2.349 1.054-2.349 2.349l0.001 0z"></path>
<path d="M15.983 21.81h0.048c1.442-0.014 2.611-1.188 2.611-2.633 0-1.453-1.182-2.635-2.635-2.635s-2.635 1.182-2.635 2.635c0 1.445 1.17 2.619 2.611 2.633z"></path>
<path d="M24.216 15.505c-1.453 0-2.635 1.182-2.635 2.635 0 1.442 1.167 2.616 2.606 2.632h0.058c1.439-0.016 2.606-1.189 2.606-2.632 0-1.453-1.182-2.635-2.635-2.635z"></path>
<path d="M28.773 29.031v-4.91c0-1.296-1.053-2.349-2.349-2.349h-2.151c-0.020 0-0.038 0.003-0.058 0.003s-0.038-0.003-0.058-0.003h-2.17c-0.663 0-1.277 0.273-1.714 0.748 0.061 0.047 0.116 0.1 0.173 0.151 0.033 0.029 0.069 0.057 0.101 0.087 0.098 0.095 0.19 0.195 0.275 0.3 0.026 0.032 0.047 0.067 0.073 0.1 0.058 0.078 0.115 0.157 0.166 0.239 0.029 0.046 0.053 0.093 0.079 0.14 0.041 0.075 0.081 0.151 0.117 0.228 0.023 0.051 0.044 0.102 0.066 0.154 0.032 0.079 0.060 0.16 0.085 0.243 0.016 0.052 0.032 0.103 0.046 0.155 0.023 0.091 0.041 0.184 0.058 0.277 0.008 0.046 0.018 0.090 0.024 0.137 0.018 0.14 0.029 0.282 0.029 0.427v3.872l7.208-0z"></path>
<path d="M11.897 6.45c-0.063 0.212-0.258 0.358-0.479 0.358h-1.085v1.721h1.085c0.222 0 0.418 0.146 0.48 0.36 0.084 0.288 0.197 0.565 0.336 0.824 0.104 0.194 0.069 0.434-0.086 0.589l-0.765 0.765 1.22 1.22 0.765-0.765c0.156-0.156 0.396-0.191 0.591-0.087 0.258 0.139 0.534 0.252 0.823 0.337 0.213 0.063 0.36 0.258 0.36 0.479v1.090h1.722v-1.090c0-0.221 0.145-0.416 0.358-0.479 0.296-0.088 0.573-0.201 0.826-0.337 0.195-0.104 0.434-0.069 0.59 0.087l0.765 0.765 1.219-1.219-0.769-0.767c-0.157-0.158-0.192-0.4-0.084-0.595 0.139-0.252 0.253-0.527 0.338-0.819 0.063-0.213 0.258-0.36 0.48-0.36h1.085v-1.721h-1.085c-0.221 0-0.416-0.146-0.48-0.358-0.088-0.298-0.201-0.574-0.338-0.821-0.108-0.196-0.073-0.439 0.085-0.596l0.768-0.766-1.218-1.218-0.765 0.768c-0.158 0.158-0.401 0.193-0.596 0.085-0.246-0.135-0.523-0.249-0.822-0.338-0.212-0.063-0.357-0.258-0.357-0.479v-1.085h-1.722v1.085c0 0.222-0.146 0.417-0.359 0.479-0.293 0.086-0.569 0.2-0.82 0.338-0.195 0.108-0.438 0.073-0.595-0.085l-0.764-0.768-1.219 1.219 0.765 0.766c0.156 0.156 0.191 0.396 0.087 0.59-0.136 0.254-0.249 0.532-0.336 0.826zM16 4.626c1.677 0 3.043 1.365 3.043 3.043s-1.365 3.043-3.043 3.043c-1.678 0-3.043-1.365-3.043-3.043s1.365-3.043 3.043-3.043z"></path>
<path d="M16 9.712c1.127 0 2.043-0.916 2.043-2.043s-0.916-2.043-2.043-2.043c-1.127 0-2.043 0.917-2.043 2.043s0.916 2.043 2.043 2.043z"></path>
</svg>
