<svg xmlns="http://www.w3.org/2000/svg" width="32" height="32"><path d="M21.401.484c-2.046.198-3.979 1.744-4.597 3.676l-.111.347-.573-.018c-1.091-.034-1.826.253-2.575 1.002-.682.683-.981 1.324-1.047 2.244a3.498 3.498 0 0 0 1.903 3.349c.832.408.335.383 7.602.383 6.308 0 6.526-.004 6.924-.106 1.786-.456 2.93-2.261 2.57-4.056-.276-1.383-1.385-2.508-2.728-2.772a4.858 4.858 0 0 0-.865-.045l-.54.019-.141-.4a5.153 5.153 0 0 0-1.325-2.069c-.994-.944-2.034-1.432-3.314-1.557-.587-.057-.565-.057-1.183.003m1.453 1.038c1.698.296 3.143 1.657 3.544 3.338.169.704.343.868.792.745 1.049-.29 1.932-.09 2.62.592.59.584.844 1.373.706 2.19-.087.515-.276.885-.662 1.298a2.527 2.527 0 0 1-1.427.767c-.479.074-12.331.073-12.8-.001-.961-.154-1.811-.916-2.052-1.838a2.497 2.497 0 0 1 2.73-3.118c.202.025.433.071.514.102.419.16.666-.038.801-.638a4.444 4.444 0 0 1 1.201-2.174c1.075-1.075 2.519-1.527 4.033-1.263M10.756 15.573c-.107.057-1.61 2.271-5.245 7.729C.852 30.296.419 30.964.45 31.115a.693.693 0 0 0 .166.298l.133.134 15.224.013 15.225.014.161-.147a.693.693 0 0 0 .193-.312c.029-.151-.424-.849-5.094-7.854a5134.929 5134.929 0 0 0-5.138-7.7c-.007-.007-2.353-.025-5.213-.04-4.556-.024-5.219-.018-5.351.052m14.69 7.975 4.673 7.012h-8.821l-4.676-7.013-4.675-7.014 4.413.002 4.413.002 4.673 7.011m-10.006.059c2.435 3.654 4.471 6.714 4.525 6.799l.099.154H15.27l-1.941-2.913c-1.067-1.602-1.998-2.958-2.069-3.013-.174-.137-.394-.126-.577.027-.083.07-1.015 1.426-2.071 3.012l-1.919 2.884-2.386.002c-1.313 0-2.387-.011-2.387-.026 0-.049 9.03-13.573 9.062-13.571.017 0 2.023 2.991 4.458 6.645m-2.933 4.646 1.52 2.28-3.022.014c-1.662.008-3.032.004-3.044-.008-.019-.019 2.978-4.56 3.012-4.564.007-.001.697 1.024 1.534 2.278" fill-rule="evenodd"/></svg>