<!-- Generated by IcoMoon.io -->
<svg version="1.1" xmlns="http://www.w3.org/2000/svg" width="32" height="32" viewBox="0 0 32 32">
<path d="M15.050 1.574c-1.503 0.335-2.706 1.379-3.255 2.755l-0.011 0.031-0.178 0.44h-6.528l-0.284 0.148c-0.388 0.197-0.649 0.594-0.649 1.051 0 0.46 0.264 0.858 0.649 1.051l0.007 0.003 0.278 0.146h6.528l0.178 0.44c0.486 1.206 1.496 2.198 2.648 2.606l0.342 0.12v16.46l-4.868 0.002c-4.622 0-4.876 0.006-5.080 0.1-0.948 0.438-0.874 1.85 0.116 2.2 0.304 0.108 21.812 0.108 22.116 0 0.466-0.172 0.793-0.612 0.793-1.129 0-0.339-0.14-0.645-0.366-0.863l-0-0c-0.34-0.324-0.092-0.31-5.402-0.31h-4.856v-16.46l0.342-0.12c1.15-0.406 2.2-1.438 2.652-2.606l0.17-0.44h6.522l0.282-0.14c0.398-0.194 0.668-0.596 0.668-1.061s-0.27-0.868-0.663-1.058l-0.007-0.003-0.28-0.138h-6.522l-0.17-0.44c-0.567-1.403-1.77-2.445-3.241-2.776l-0.031-0.006c-0.289-0.049-0.622-0.078-0.961-0.078-0.331 0-0.655 0.027-0.971 0.078l0.035-0.005zM16.906 4.086c1.318 0.634 1.628 2.39 0.598 3.402-0.361 0.388-0.875 0.629-1.445 0.629-0.023 0-0.046-0-0.068-0.001l0.003 0c-0.012 0-0.027 0-0.042 0-0.584 0-1.11-0.253-1.473-0.655l-0.002-0.002c-1.088-1.156-0.646-2.91 0.88-3.492 0.12-0.046 0.37-0.068 0.696-0.060 0.442 0.010 0.55 0.032 0.852 0.178zM6.786 9.602c-0.147 0.083-0.271 0.186-0.374 0.308l-0.002 0.002c-0.34 0.438-4.308 6.622-4.47 6.968-0.23 0.446-0.365 0.973-0.365 1.532 0 0.033 0 0.066 0.001 0.099l-0-0.005c0 1.21 0.566 2.49 1.56 3.53 1.042 1.123 2.527 1.823 4.174 1.823 0.203 0 0.403-0.011 0.6-0.031l-0.025 0.002c1.326-0.122 2.47-0.658 3.484-1.632 0.51-0.483 0.928-1.057 1.228-1.698l0.014-0.034c0.362-0.772 0.476-1.236 0.478-1.96 0.001-0.032 0.002-0.070 0.002-0.109 0-0.605-0.158-1.174-0.435-1.667l0.009 0.017c-1.089-1.79-1.85-2.973-2.629-4.144l0.323 0.516c-2.412-3.718-2.304-3.586-2.964-3.616-0.31-0.014-0.426 0.006-0.61 0.098zM24.12 9.602c-0.147 0.083-0.272 0.187-0.376 0.308l-0.002 0.002c-0.338 0.438-4.306 6.622-4.47 6.968-0.229 0.445-0.363 0.971-0.363 1.528 0 0.034 0 0.069 0.002 0.103l-0-0.005c0 1.21 0.564 2.49 1.56 3.53 1.042 1.123 2.526 1.823 4.174 1.823 0.203 0 0.403-0.011 0.6-0.031l-0.025 0.002c1.326-0.122 2.468-0.658 3.482-1.632 0.544-0.524 0.924-1.052 1.244-1.732 0.362-0.772 0.476-1.236 0.476-1.96 0.001-0.034 0.002-0.073 0.002-0.113 0-0.604-0.157-1.171-0.433-1.663l0.009 0.017c-1.089-1.79-1.85-2.973-2.629-4.144l0.323 0.516c-2.412-3.718-2.304-3.586-2.964-3.616-0.31-0.014-0.426 0.006-0.61 0.098zM8.374 14.48c0.534 0.822 0.992 1.536 1.020 1.586 0.046 0.088-0.066 0.094-2.032 0.094-1.474 0-2.082-0.018-2.082-0.058 0-0.11 2.040-3.202 2.084-3.158 0.024 0.024 0.478 0.714 1.010 1.536zM25.708 14.48c0.534 0.822 0.992 1.536 1.020 1.586 0.046 0.088-0.066 0.094-2.032 0.094-1.474 0-2.082-0.018-2.082-0.058 0-0.11 2.040-3.202 2.084-3.158 0.022 0.024 0.478 0.714 1.010 1.536zM10.72 18.604c0 0.12-0.19 0.66-0.334 0.942-0.444 0.884-1.3 1.58-2.234 1.82-0.246 0.054-0.53 0.084-0.82 0.084-0.287 0-0.567-0.030-0.836-0.087l0.026 0.005c-0.982-0.281-1.776-0.939-2.232-1.802l-0.010-0.020c-0.142-0.282-0.334-0.822-0.334-0.942 0-0.024 1.524-0.044 3.388-0.044 1.862 0 3.386 0.020 3.386 0.044zM28.054 18.604c0 0.12-0.192 0.66-0.334 0.942-0.463 0.883-1.256 1.54-2.211 1.814l-0.025 0.006c-0.246 0.054-0.529 0.084-0.819 0.084-0.286 0-0.566-0.030-0.835-0.087l0.026 0.005c-0.982-0.281-1.777-0.939-2.234-1.802l-0.010-0.020c-0.142-0.282-0.332-0.822-0.332-0.942 0-0.024 1.524-0.044 3.386-0.044 1.864 0 3.388 0.020 3.388 0.044z"></path>
</svg>
